<svg preserveAspectRatio="none" width="24" height="24" viewBox="0 0 20 20" fill="none" xmlns="http://www.w3.org/2000/svg">
<path d="M14.1379 2.75862V2.06897C14.1379 0.931035 13.2069 0 12.069 0H7.93103C6.7931 0 5.86207 0.931035 5.86207 2.06897V2.75862C3.96552 2.75862 2.41379 4.31034 2.41379 6.2069V15.1724C2.41379 17.069 3.96552 18.6207 5.86207 18.6207H6.55172V19.3103C6.55172 19.6897 6.86207 20 7.24138 20C7.62069 20 7.93103 19.6897 7.93103 19.3103V18.6207H12.069V19.3103C12.069 19.6897 12.3793 20 12.7586 20C13.1379 20 13.4483 19.6897 13.4483 19.3103V18.6207H14.1379C16.0345 18.6207 17.5862 17.069 17.5862 15.1724V6.2069C17.5862 4.31034 16.0345 2.75862 14.1379 2.75862ZM7.24138 2.06897C7.24138 1.68966 7.55172 1.37931 7.93103 1.37931H12.069C12.4483 1.37931 12.7586 1.68966 12.7586 2.06897V2.75862H7.24138V2.06897ZM16.2069 15.1724C16.2069 16.3103 15.2759 17.2414 14.1379 17.2414H5.86207C4.72414 17.2414 3.7931 16.3103 3.7931 15.1724V6.2069C3.7931 5.06897 4.72414 4.13793 5.86207 4.13793H14.1379C15.2759 4.13793 16.2069 5.06897 16.2069 6.2069V15.1724Z" fill="#333333"/>
<path d="M16.2069 15.1724C16.2069 16.3103 15.2759 17.2414 14.1379 17.2414H5.86207C4.72414 17.2414 3.7931 16.3103 3.7931 15.1724V6.2069C3.7931 5.06897 4.72414 4.13793 5.86207 4.13793H14.1379C15.2759 4.13793 16.2069 5.06897 16.2069 6.2069V15.1724Z" fill="#333333"/>
<path d="M7.8125 6.5625C7.46875 6.5625 7.1875 6.84375 7.1875 7.1875V14.0625C7.1875 14.4063 7.46875 14.6875 7.8125 14.6875C8.15625 14.6875 8.4375 14.4063 8.4375 14.0625V7.1875C8.4375 6.84375 8.15625 6.5625 7.8125 6.5625ZM12.1875 6.5625C11.8437 6.5625 11.5625 6.84375 11.5625 7.1875V14.0625C11.5625 14.4063 11.8437 14.6875 12.1875 14.6875C12.5313 14.6875 12.8125 14.4063 12.8125 14.0625V7.1875C12.8125 6.84375 12.5313 6.5625 12.1875 6.5625Z" fill="white"/>
</svg>
