<svg preserveAspectRatio="none" overflow="visible" style="display: block;" width="11.3439" height="19.36" viewBox="0 0 11.3439 19.36" fill="none" xmlns="http://www.w3.org/2000/svg">
<g id="Group">
<path id="Vector" d="M3.7466 19.3141C4.00271 19.4235 4.30048 19.3321 4.45007 19.0958L11.2563 8.28146C11.3665 8.10643 11.3732 7.88541 11.2735 7.70486C11.1738 7.52373 10.9832 7.41128 10.7766 7.41128H6.23414L7.92353 0.706782C7.99166 0.43593 7.85372 0.156194 7.59728 0.04597C7.3425 -0.0636862 7.04283 0.028236 6.89381 0.264186L0.0875625 11.0786C-0.022661 11.2536 -0.0293161 11.4746 0.0703955 11.6552C0.170107 11.8363 0.360644 11.9487 0.567252 11.9487H5.10975L3.42036 18.6532C3.35222 18.9241 3.49012 19.2038 3.7466 19.3141Z" fill="#039BFD"/>
</g>
</svg>
