<svg width="20" height="20" viewBox="0 0 20 20" fill="none" xmlns="http://www.w3.org/2000/svg">
<path d="M17.0697 2.92969C13.1652 -0.976562 6.83352 -0.976562 2.92903 2.92969C-0.975464 6.83594 -0.977222 13.1658 2.92903 17.0703C6.83528 20.9748 13.1652 20.9766 17.0697 17.0703C20.9741 13.1641 20.9759 6.83418 17.0697 2.92969ZM14.8542 8.60488L9.85422 13.6049C9.70913 13.75 9.53688 13.8651 9.3473 13.9436C9.15773 14.0221 8.95454 14.0626 8.74934 14.0626C8.54414 14.0626 8.34096 14.0221 8.15138 13.9436C7.9618 13.8651 7.78955 13.75 7.64446 13.6049L5.14446 11.1049C4.85142 10.8118 4.6868 10.4144 4.6868 10C4.6868 9.58559 4.85142 9.18815 5.14446 8.89512C5.43749 8.60208 5.83493 8.43746 6.24934 8.43746C6.66375 8.43746 7.06119 8.60208 7.35422 8.89512L8.74934 10.2902L12.6445 6.39512C12.9375 6.10208 13.3349 5.93746 13.7493 5.93746C14.1638 5.93746 14.5612 6.10208 14.8542 6.39512C15.1473 6.68815 15.3119 7.08559 15.3119 7.5C15.3119 7.91441 15.1473 8.31185 14.8542 8.60488Z" fill="#0071F3"/>
</svg>
