<svg preserveAspectRatio="none" width="24" height="24" viewBox="0 0 20 20" fill="none" xmlns="http://www.w3.org/2000/svg">
<path d="M11.875 0.8125C12.9753 0.8125 13.875 1.71221 13.875 2.8125V3.31445C15.6054 3.38069 17 4.81656 17 6.5625V14.6875C17 16.4753 15.5378 17.9375 13.75 17.9375H13.25V18.4375C13.25 18.8503 12.9128 19.1875 12.5 19.1875C12.0872 19.1875 11.75 18.8503 11.75 18.4375V17.9375H8.25V18.4375C8.25 18.8503 7.91279 19.1875 7.5 19.1875C7.08721 19.1875 6.75 18.8503 6.75 18.4375V17.9375H6.25C4.46221 17.9375 3 16.4753 3 14.6875V6.5625C3 4.81656 4.39455 3.38069 6.125 3.31445V2.8125C6.125 1.71221 7.02471 0.8125 8.125 0.8125H11.875ZM6.25 4.8125C5.28779 4.8125 4.5 5.60029 4.5 6.5625V14.6875C4.5 15.6497 5.28779 16.4375 6.25 16.4375H13.75C14.7122 16.4375 15.5 15.6497 15.5 14.6875V6.5625C15.5 5.60029 14.7122 4.8125 13.75 4.8125H6.25ZM8.125 2.3125C7.85029 2.3125 7.625 2.53779 7.625 2.8125V3.3125H12.375V2.8125C12.375 2.53779 12.1497 2.3125 11.875 2.3125H8.125Z" fill="#333333" stroke="#333333" stroke-width="0.25"/>
<path d="M7.8125 6.4375C8.22529 6.4375 8.5625 6.77471 8.5625 7.1875V14.0625C8.5625 14.4753 8.22529 14.8125 7.8125 14.8125C7.39971 14.8125 7.0625 14.4753 7.0625 14.0625V7.1875C7.0625 6.77471 7.39971 6.4375 7.8125 6.4375ZM12.1875 6.4375C12.6003 6.4375 12.9375 6.77471 12.9375 7.1875V14.0625C12.9375 14.4753 12.6003 14.8125 12.1875 14.8125C11.7747 14.8125 11.4375 14.4753 11.4375 14.0625V7.1875C11.4375 6.77471 11.7747 6.4375 12.1875 6.4375Z" fill="#333333" stroke="#333333" stroke-width="0.25"/>
</svg>
